<svg width="249" height="54" viewBox="0 0 249 54" fill="none" xmlns="http://www.w3.org/2000/svg">
<path d="M42.5 25C42.5 15.335 34.665 7.5 25 7.5C15.335 7.5 7.5 15.335 7.5 25C7.5 34.665 15.335 42.5 25 42.5C34.665 42.5 42.5 34.665 42.5 25ZM49.5 25C49.5 38.531 38.531 49.5 25 49.5C11.469 49.5 0.5 38.531 0.5 25C0.5 11.469 11.469 0.5 25 0.5C38.531 0.5 49.5 11.469 49.5 25Z" fill="#E35436"/>
<path d="M32.3298 16.4099C32.6724 16.4389 32.9796 16.5704 33.2048 16.7957C33.4299 17.0209 33.5606 17.3281 33.5896 17.6707C33.6185 18.0131 33.5432 18.3626 33.4294 18.6921C33.3017 19.0556 33.1676 19.4137 33.0281 19.7654C31.7721 22.9303 30.0393 25.6184 27.8288 27.8289C25.6184 30.0393 22.9303 31.7722 19.7654 33.0281C19.4137 33.1676 19.0556 33.3017 18.6921 33.4295C18.3625 33.5432 18.0131 33.6185 17.6706 33.5896C17.3281 33.5606 17.0209 33.43 16.7956 33.2048C16.5704 32.9796 16.4389 32.6725 16.4099 32.3298C16.3809 31.9872 16.4572 31.6371 16.571 31.3074C16.6987 30.9441 16.8319 30.5866 16.9714 30.2351C18.2273 27.07 19.9611 24.3822 22.1716 22.1716C24.3821 19.9611 27.07 18.2274 30.2351 16.9714C30.5866 16.832 30.9441 16.6988 31.3074 16.5711C31.6371 16.4572 31.9872 16.3809 32.3298 16.4099Z" fill="#E35436"/>
<path d="M58.6 44V6.75002H83.35V12.75H65.4V22.3H82.35V28.3H65.4V38H83.35V44H58.6Z" fill="#E35436"/>
<path d="M85.3363 44L94.8363 30.35L85.2863 16.8H92.9863L100.436 27.8H96.9863L104.436 16.8H112.086L102.586 30.35L112.036 44H104.386L97.0363 33.05H100.386L93.0363 44H85.3363Z" fill="#E35436"/>
<path d="M115.667 54V16.8H121.817V22.2L121.217 20.85C122.151 19.3834 123.417 18.25 125.017 17.45C126.617 16.6167 128.467 16.2 130.567 16.2C133.134 16.2 135.451 16.8334 137.517 18.1C139.584 19.3667 141.217 21.0667 142.417 23.2C143.651 25.3334 144.267 27.7334 144.267 30.4C144.267 33.0334 143.667 35.4334 142.467 37.6C141.267 39.7667 139.634 41.4834 137.567 42.75C135.501 43.9834 133.151 44.6 130.517 44.6C128.551 44.6 126.734 44.2167 125.067 43.45C123.434 42.65 122.134 41.5167 121.167 40.05L122.217 38.75V54H115.667ZM129.767 38.6C131.267 38.6 132.601 38.25 133.767 37.55C134.934 36.85 135.834 35.8834 136.467 34.65C137.134 33.4167 137.467 32 137.467 30.4C137.467 28.8 137.134 27.4 136.467 26.2C135.834 24.9667 134.934 24 133.767 23.3C132.601 22.5667 131.267 22.2 129.767 22.2C128.334 22.2 127.034 22.55 125.867 23.25C124.734 23.95 123.834 24.9334 123.167 26.2C122.534 27.4334 122.217 28.8334 122.217 30.4C122.217 32 122.534 33.4167 123.167 34.65C123.834 35.8834 124.734 36.85 125.867 37.55C127.034 38.25 128.334 38.6 129.767 38.6Z" fill="#E35436"/>
<path d="M147.261 44V6.15002H153.811V44H147.261Z" fill="#E35436"/>
<path d="M171.159 44.6C168.492 44.6 166.059 43.9834 163.859 42.75C161.692 41.5167 159.959 39.8334 158.659 37.7C157.392 35.5667 156.759 33.1334 156.759 30.4C156.759 27.6667 157.392 25.2334 158.659 23.1C159.959 20.9667 161.692 19.2834 163.859 18.05C166.025 16.8167 168.459 16.2 171.159 16.2C173.825 16.2 176.242 16.8167 178.409 18.05C180.575 19.2834 182.292 20.9667 183.559 23.1C184.859 25.2 185.509 27.6334 185.509 30.4C185.509 33.1334 184.859 35.5667 183.559 37.7C182.259 39.8334 180.525 41.5167 178.359 42.75C176.192 43.9834 173.792 44.6 171.159 44.6ZM171.159 38.6C172.625 38.6 173.909 38.25 175.009 37.55C176.142 36.85 177.025 35.8834 177.659 34.65C178.325 33.3834 178.659 31.9667 178.659 30.4C178.659 28.8 178.325 27.4 177.659 26.2C177.025 24.9667 176.142 24 175.009 23.3C173.909 22.5667 172.625 22.2 171.159 22.2C169.659 22.2 168.342 22.5667 167.209 23.3C166.075 24 165.175 24.9667 164.509 26.2C163.875 27.4 163.559 28.8 163.559 30.4C163.559 31.9667 163.875 33.3834 164.509 34.65C165.175 35.8834 166.075 36.85 167.209 37.55C168.342 38.25 169.659 38.6 171.159 38.6Z" fill="#E35436"/>
<path d="M188.476 44V16.8H194.626V22.85L194.126 21.95C194.759 19.9167 195.742 18.5 197.076 17.7C198.442 16.9 200.076 16.5 201.976 16.5H203.576V22.3H201.226C199.359 22.3 197.859 22.8834 196.726 24.05C195.592 25.1834 195.026 26.7834 195.026 28.85V44H188.476Z" fill="#E35436"/>
<path d="M218.077 44.6C215.277 44.6 212.827 43.9667 210.727 42.7C208.627 41.4334 206.994 39.7167 205.827 37.55C204.66 35.3834 204.077 32.9834 204.077 30.35C204.077 27.6167 204.66 25.2 205.827 23.1C207.027 20.9667 208.644 19.2834 210.677 18.05C212.744 16.8167 215.044 16.2 217.577 16.2C219.71 16.2 221.577 16.55 223.177 17.25C224.81 17.95 226.194 18.9167 227.327 20.15C228.46 21.3834 229.327 22.8 229.927 24.4C230.527 25.9667 230.827 27.6667 230.827 29.5C230.827 29.9667 230.794 30.45 230.727 30.95C230.694 31.45 230.61 31.8834 230.477 32.25H209.477V27.25H226.777L223.677 29.6C223.977 28.0667 223.894 26.7 223.427 25.5C222.994 24.3 222.26 23.35 221.227 22.65C220.227 21.95 219.01 21.6 217.577 21.6C216.21 21.6 214.994 21.95 213.927 22.65C212.86 23.3167 212.044 24.3167 211.477 25.65C210.944 26.95 210.744 28.5334 210.877 30.4C210.744 32.0667 210.96 33.55 211.527 34.85C212.127 36.1167 212.994 37.1 214.127 37.8C215.294 38.5 216.627 38.85 218.127 38.85C219.627 38.85 220.894 38.5334 221.927 37.9C222.994 37.2667 223.827 36.4167 224.427 35.35L229.727 37.95C229.194 39.25 228.36 40.4 227.227 41.4C226.094 42.4 224.744 43.1834 223.177 43.75C221.644 44.3167 219.944 44.6 218.077 44.6Z" fill="#E35436"/>
<path d="M233.792 44V16.8H239.942V22.85L239.442 21.95C240.076 19.9167 241.059 18.5 242.392 17.7C243.759 16.9 245.392 16.5 247.292 16.5H248.892V22.3H246.542C244.676 22.3 243.176 22.8834 242.042 24.05C240.909 25.1834 240.342 26.7834 240.342 28.85V44H233.792Z" fill="#E35436"/>
</svg>
